<?xml version="1.0" standalone="no"?>
<!DOCTYPE svg PUBLIC "-//W3C//DTD SVG 20010904//EN"
 "http://www.w3.org/TR/2001/REC-SVG-20010904/DTD/svg10.dtd">
<svg version="1.0" xmlns="http://www.w3.org/2000/svg"
 width="209.000000pt" height="150.000000pt" viewBox="0 0 209.000000 150.000000"
 preserveAspectRatio="xMidYMid meet">
<metadata>
Created by potrace 1.10, written by Peter Selinger 2001-2011
</metadata>
<g transform="translate(0.000000,150.000000) scale(0.100000,-0.100000)"
fill="#000000" stroke="none">
<path d="M1098 1482 c-15 -10 -66 -61 -113 -113 -83 -91 -128 -130 -190 -167
-16 -9 -53 -41 -80 -69 -28 -29 -58 -53 -68 -53 -16 0 -47 54 -70 122 -4 10
-22 24 -41 32 -21 9 -50 35 -71 64 -53 75 -95 81 -158 23 -23 -21 -51 -43 -63
-49 -11 -6 -44 -50 -73 -99 -30 -48 -63 -98 -74 -110 -18 -21 -19 -31 -14
-120 30 -484 398 -879 860 -922 125 -12 288 1 377 29 382 122 650 449 695 846
6 56 4 66 -23 115 -16 30 -33 68 -37 84 -9 39 -33 65 -61 65 -12 0 -41 16 -64
35 -23 19 -48 35 -56 35 -17 0 -41 -25 -87 -89 -18 -25 -37 -46 -43 -48 -15
-5 -121 93 -140 129 -24 47 -51 68 -87 68 -38 0 -73 32 -100 93 -12 27 -23 37
-40 37 -13 0 -42 16 -65 36 -60 51 -73 37 -19 -21 31 -33 48 -61 52 -87 5 -28
16 -46 41 -64 34 -26 80 -91 71 -100 -4 -5 -36 26 -62 61 -10 13 -14 15 -15 6
0 -18 88 -113 115 -124 11 -4 28 -15 37 -24 10 -9 21 -14 24 -10 6 6 -19 34
-52 58 -11 8 -33 38 -49 68 -16 29 -40 60 -52 68 -13 9 -25 30 -29 49 -3 19
-10 37 -15 40 -15 9 -10 24 6 17 9 -3 23 -20 32 -37 23 -47 64 -86 89 -86 24
0 64 -42 64 -67 0 -16 40 -77 46 -70 2 2 -3 20 -11 40 -8 21 -11 37 -6 37 5 0
14 -14 21 -30 15 -37 86 -100 112 -100 10 0 18 -3 18 -6 0 -10 -70 -96 -99
-122 -20 -18 -21 -21 -5 -13 11 5 40 31 65 58 24 26 53 53 64 59 11 6 38 34
60 62 45 57 61 63 77 27 10 -23 8 -30 -28 -68 -23 -25 -27 -31 -8 -14 16 15
34 27 40 27 5 0 8 -21 6 -46 -4 -44 -3 -47 68 -120 79 -81 89 -117 12 -41 -26
26 -51 47 -56 47 -13 0 15 -30 67 -72 78 -61 85 -30 11 52 -19 20 -34 42 -34
48 0 6 -6 9 -14 6 -19 -7 -33 41 -42 140 l-7 80 31 -25 c17 -13 31 -31 32 -39
0 -8 7 -26 15 -40 14 -25 14 -25 15 13 0 45 15 41 25 -6 4 -17 12 -38 17 -44
7 -9 7 -13 -1 -13 -7 0 -11 -10 -9 -22 2 -13 8 -21 13 -18 6 2 9 11 7 20 -1 8
5 2 14 -14 30 -54 1 -231 -61 -372 -14 -31 -25 -63 -25 -71 0 -26 -20 -2 -21
25 -2 27 -2 27 -6 2 -12 -77 -36 -131 -69 -154 -19 -12 -31 -25 -28 -28 2 -3
-26 -36 -63 -73 -69 -69 -150 -129 -213 -157 -115 -52 -138 -61 -179 -73 -25
-7 -64 -16 -86 -20 -22 -3 -48 -8 -57 -11 -10 -3 -18 -1 -18 5 0 6 15 15 33
20 26 7 28 9 9 10 -13 1 -35 -8 -49 -19 -25 -19 -83 -28 -83 -12 0 4 -28 5
-62 4 -93 -6 -252 30 -286 65 -8 8 -21 12 -29 8 -11 -4 -14 0 -11 13 6 22 -8
52 -24 52 -6 0 -3 -8 6 -19 15 -17 15 -19 1 -25 -9 -3 -13 -2 -10 4 3 5 0 7
-8 5 -7 -3 -32 8 -55 25 -23 16 -46 30 -51 30 -10 0 -61 50 -61 61 0 4 19 2
43 -5 23 -7 41 -18 40 -23 -1 -6 13 -23 33 -38 41 -31 64 -22 64 27 0 22 4 28
18 26 13 -2 18 -16 22 -63 4 -44 9 -60 20 -60 11 0 16 13 18 48 2 26 7 45 11
42 5 -2 19 4 31 15 31 27 33 26 28 -15 -4 -31 -1 -35 19 -35 13 0 23 -4 23
-10 0 -5 -10 -10 -22 -10 -21 0 -21 -1 5 -15 30 -15 94 -17 103 -3 3 4 -3 5
-12 1 -12 -5 -15 -3 -9 6 4 7 18 11 31 8 13 -2 21 0 17 5 -3 6 -17 8 -32 5
-14 -2 -37 -1 -51 3 -16 5 9 8 68 9 50 1 92 -3 92 -8 0 -4 -10 -7 -22 -6 -13
1 -15 0 -5 -2 32 -8 17 -23 -22 -23 -22 0 -42 -3 -45 -8 -8 -13 78 -1 89 12 6
7 25 16 43 19 17 4 45 10 62 13 26 5 29 4 25 -14 -3 -15 0 -19 12 -15 12 5 12
7 2 14 -20 12 3 18 81 22 36 2 -49 4 -187 5 -242 2 -253 3 -253 21 0 11 4 21
9 23 16 6 17 108 0 119 -20 13 -29 11 -29 -6 0 -9 -7 -18 -15 -21 -8 -4 -13
-10 -10 -15 3 -4 13 -5 23 -2 15 6 15 4 4 -10 -8 -8 -25 -17 -39 -19 -15 -2
-28 -10 -30 -18 -4 -11 -2 -12 5 -2 6 9 16 10 32 4 15 -6 19 -11 12 -16 -7 -4
-12 -5 -12 -1 0 3 -9 1 -20 -5 -16 -8 -20 -21 -20 -60 0 -81 -19 -57 -22 28
l-3 77 -37 3 c-38 3 -54 21 -20 23 14 0 14 2 -3 8 -11 5 -24 6 -30 3 -5 -3 -4
1 2 10 7 8 10 18 6 22 -4 4 -1 11 7 16 10 7 11 10 3 10 -7 0 -13 7 -13 15 0 9
-6 12 -15 9 -15 -6 -22 -26 -7 -21 7 2 12 -6 12 -24 0 -5 -4 -7 -10 -4 -6 4
-6 -4 0 -21 12 -30 -5 -51 -26 -33 -6 5 -19 7 -28 3 -8 -3 -29 -1 -46 4 -16 6
-32 7 -34 3 -5 -8 -4 -8 54 -14 44 -5 76 -21 106 -56 44 -49 21 -58 -32 -12
-35 31 -96 54 -120 44 -7 -3 -17 2 -20 11 -3 9 -10 14 -14 11 -4 -3 -27 16
-50 41 -23 25 -45 43 -48 39 -11 -11 188 -197 204 -191 7 3 13 0 11 -7 -1 -6
36 -31 83 -54 316 -159 663 -139 952 54 37 25 102 81 143 124 41 43 75 74 75
68 0 -19 -161 -172 -221 -212 -76 -49 -202 -103 -301 -129 -116 -30 -318 -30
-435 0 -188 48 -334 132 -457 263 -67 71 -96 113 -66 94 20 -12 9 12 -15 35
-30 28 -106 181 -134 270 -21 68 -41 194 -41 261 0 59 105 226 180 285 78 62
83 60 99 -51 7 -54 16 -75 32 -75 6 0 6 6 0 18 -5 9 -9 51 -9 92 l-1 75 19
-36 c10 -19 26 -41 34 -48 9 -8 16 -26 16 -42 0 -35 60 -106 107 -126 32 -13
52 -50 39 -72 -4 -5 -2 -12 4 -16 6 -4 10 6 10 24 0 23 7 34 29 45 16 9 40 29
54 46 14 16 56 51 94 76 37 26 118 98 178 162 113 117 135 130 135 73 0 -15 6
-36 14 -46 13 -18 13 -14 9 30 -5 41 -26 105 -36 105 -1 0 -14 -8 -29 -18z
m-529 -338 c30 -56 19 -61 -25 -12 -26 28 -43 98 -19 78 8 -7 28 -36 44 -66z"/>
<path d="M1111 1372 c-1 -14 -5 -21 -12 -16 -8 4 -7 0 1 -15 7 -13 9 -39 5
-65 -7 -43 -5 -46 54 -118 37 -45 61 -84 61 -99 0 -13 6 -31 13 -40 17 -21
127 -79 127 -67 0 24 -50 115 -78 142 -27 25 -61 29 -46 5 3 -5 9 -7 13 -4 10
6 42 -29 70 -79 26 -46 20 -58 -14 -26 -14 13 -25 20 -25 15 0 -5 -11 2 -25
15 -14 13 -25 33 -25 45 0 12 -18 47 -40 78 -38 53 -49 83 -69 202 -5 28 -9
40 -10 27z"/>
<path d="M1200 1354 c11 -46 25 -60 16 -15 -3 18 -6 37 -6 42 0 5 -4 9 -9 9
-5 0 -5 -15 -1 -36z"/>
<path d="M1060 1340 c0 -6 -18 -30 -40 -54 -26 -28 -40 -53 -40 -71 0 -20 -4
-26 -16 -21 -10 4 -13 2 -7 -7 14 -22 33 -81 33 -105 0 -13 4 -20 10 -17 13 8
24 -39 16 -76 -3 -16 -2 -28 3 -25 17 11 19 80 3 98 -13 16 -12 24 12 78 27
63 36 134 15 113 -7 -7 -12 -20 -13 -30 -3 -36 -28 -94 -39 -90 -7 2 -11 13
-9 23 2 10 3 34 2 52 -1 31 10 47 64 90 15 12 23 52 11 52 -3 0 -5 -5 -5 -10z"/>
<path d="M340 1260 c-22 -22 -26 -60 -10 -76 6 -6 12 -27 13 -46 2 -25 12 -45
32 -64 17 -16 38 -40 47 -54 8 -14 18 -23 21 -20 4 3 -12 30 -35 60 -25 33
-42 68 -46 92 -3 23 -10 38 -18 38 -16 0 -19 37 -5 59 5 7 14 10 20 7 6 -4 11
0 11 8 0 21 -6 20 -30 -4z"/>
<path d="M1171 1255 c0 -20 25 -62 33 -54 2 2 -4 20 -14 39 -14 26 -19 30 -19
15z"/>
<path d="M1390 1249 c0 -9 40 -89 45 -89 8 0 -18 65 -31 80 -8 8 -14 12 -14 9z"/>
<path d="M1270 1192 c0 -23 38 -107 45 -100 3 2 -7 31 -20 64 -15 37 -25 50
-25 36z"/>
<path d="M915 1156 c-8 -8 -7 -19 2 -36 7 -14 13 -20 14 -15 0 6 7 -3 14 -20
20 -43 17 -8 -3 41 -12 30 -20 39 -27 30z"/>
<path d="M489 1125 c-3 -15 5 -25 29 -38 19 -10 36 -16 39 -13 3 2 -9 12 -25
20 -17 9 -32 24 -34 33 -4 16 -5 16 -9 -2z"/>
<path d="M885 1079 c5 -40 15 -51 15 -16 0 15 0 30 1 34 0 4 -4 9 -10 11 -6 2
-8 -10 -6 -29z"/>
<path d="M307 1093 c-8 -12 56 -89 86 -104 12 -6 3 8 -21 31 -24 23 -47 51
-51 63 -4 11 -11 16 -14 10z"/>
<path d="M1117 1080 c-23 -18 -52 -95 -41 -111 2 -4 8 -33 13 -66 5 -32 17
-79 27 -105 15 -38 16 -50 6 -60 -9 -9 -15 -10 -20 -2 -15 24 -54 27 -76 5
-45 -44 -92 -78 -121 -89 -28 -10 -28 -10 -5 -11 19 -1 21 -4 12 -13 -7 -7
-12 -16 -12 -21 0 -5 35 23 79 62 43 39 83 71 88 71 5 0 33 -25 63 -55 45 -45
58 -53 78 -48 22 5 24 3 20 -15 -4 -15 5 -31 33 -58 22 -21 39 -43 39 -49 0
-5 -5 -3 -10 5 -7 10 -10 11 -10 2 0 -6 -28 15 -62 49 -35 34 -84 78 -109 100
l-46 38 -113 -95 c-109 -92 -156 -118 -93 -51 27 28 30 35 21 57 l-11 25 -6
-24 c-10 -39 -29 -36 -37 6 -4 21 -16 46 -27 56 -24 21 -22 21 -52 1 -15 -10
-34 -14 -49 -10 -26 6 -49 -13 -61 -53 -6 -18 -9 -20 -16 -10 -11 17 -11 16
-14 -44 -2 -26 -9 -54 -15 -62 -16 -19 7 -65 38 -76 19 -7 23 -6 20 8 -2 9
-12 17 -22 19 -19 3 -36 20 -36 38 0 5 17 6 38 3 l37 -6 -27 24 c-21 18 -24
26 -15 34 8 6 18 6 27 1 27 -17 36 -10 13 9 -13 11 -23 25 -23 31 0 9 3 10 14
1 11 -9 13 -6 11 14 -8 72 30 81 41 9 8 -53 24 -59 24 -8 0 21 4 33 10 29 6
-3 10 0 10 7 0 23 16 39 32 33 12 -5 15 -18 13 -50 -2 -24 -7 -50 -11 -57 -6
-10 -3 -9 9 1 24 19 21 2 -4 -25 l-21 -23 22 6 c21 6 21 4 9 -18 -11 -21 -11
-23 3 -11 10 8 19 9 22 3 3 -5 -8 -21 -26 -36 l-33 -26 28 7 c17 4 27 2 27 -5
0 -6 -12 -14 -27 -17 -16 -4 -36 -13 -47 -20 -15 -11 -12 -12 25 -7 25 4 61
19 83 35 22 16 46 26 54 23 9 -3 12 0 9 9 -3 8 1 20 9 26 12 10 14 8 14 -14 0
-14 5 -26 11 -26 6 0 9 7 5 15 -3 9 0 15 9 15 8 0 15 7 15 15 0 8 -7 15 -15
15 -24 0 -18 12 31 65 25 28 52 60 61 73 l15 22 60 -56 c33 -30 73 -65 89 -76
24 -18 29 -29 29 -63 0 -41 11 -59 50 -80 12 -7 13 -6 3 6 -11 13 -8 15 19 11
l31 -5 -21 31 c-24 32 -30 54 -10 34 22 -22 32 -12 10 11 -27 29 -28 41 -2 27
16 -9 19 -8 13 6 -5 12 -3 15 6 9 10 -6 11 -2 6 16 -6 20 -5 22 6 12 7 -7 17
-13 22 -13 5 0 -5 14 -23 30 -18 17 -30 33 -26 37 3 3 15 -2 26 -12 11 -10 20
-13 20 -7 0 6 -4 14 -10 17 -5 3 -15 16 -21 28 -9 18 -9 20 2 10 22 -22 30
-14 13 12 -22 34 -10 44 17 14 18 -21 20 -21 14 -4 -16 45 -18 58 -8 52 6 -4
9 4 7 18 -1 14 1 25 6 25 4 0 10 9 13 21 7 27 33 19 29 -9 -2 -12 2 -22 8 -22
7 0 9 -7 6 -15 -21 -52 -21 -51 1 -32 11 9 22 17 25 17 6 0 -13 -58 -25 -77
-14 -21 11 -14 26 7 8 11 16 17 19 14 8 -7 -17 -55 -34 -65 -7 -4 -10 -11 -6
-14 3 -4 19 2 34 12 l28 18 -8 -25 c-4 -14 -8 -33 -7 -42 0 -12 -8 -18 -25
-18 -13 0 -24 -4 -24 -9 0 -5 9 -7 20 -4 24 6 26 -4 3 -29 -18 -20 -5 -25 16
-5 11 9 13 9 7 0 -4 -7 -2 -13 3 -13 25 0 9 -21 -20 -27 -25 -5 -28 -8 -15
-15 9 -5 21 -6 26 -3 17 11 11 -10 -10 -33 -12 -12 -28 -22 -38 -23 -11 0 -6
-5 12 -14 29 -12 29 -13 8 -24 -12 -7 -29 -11 -38 -9 -13 3 -16 -11 -17 -84
-1 -47 1 -84 6 -81 4 2 7 33 7 69 0 36 4 63 8 60 9 -5 56 47 58 64 1 6 2 14 3
19 0 5 9 8 19 7 12 -1 18 8 20 28 2 15 0 26 -5 23 -5 -3 -7 12 -5 34 2 21 8
39 14 39 5 0 7 8 3 18 -3 11 -7 38 -10 61 -2 23 -9 48 -14 55 -6 7 -8 15 -6
18 3 3 -4 31 -16 62 -21 57 -57 106 -78 106 -22 0 -10 24 34 67 25 24 43 43
40 43 -19 0 -59 -40 -95 -96 -23 -35 -59 -78 -79 -95 -25 -21 -28 -25 -8 -13
36 22 43 13 27 -35 -12 -38 -16 -88 -9 -123 6 -26 -15 -22 -23 4 -5 19 -6 20
-7 4 -1 -19 -1 -19 -18 0 -30 34 -56 91 -47 106 5 8 -3 6 -20 -5 l-27 -18 -34
32 c-18 18 -31 37 -29 41 3 5 10 6 15 3 17 -11 9 35 -13 78 -12 23 -23 62 -24
87 -2 25 -6 59 -9 76 -7 33 18 99 34 89 5 -2 14 2 20 9 19 23 -4 28 -32 6z
m-195 -566 c-5 -26 -29 -47 -69 -59 -19 -5 -22 -3 -16 12 8 22 62 73 78 73 8
0 10 -10 7 -26z"/>
<path d="M470 1022 c0 -5 11 -19 25 -32 29 -27 33 -15 6 18 -20 23 -31 28 -31
14z"/>
<path d="M1721 1004 c-1 -16 6 -39 14 -50 8 -10 14 -37 14 -59 l0 -40 -19 24
c-11 13 -20 20 -20 15 0 -4 8 -16 17 -26 15 -17 15 -21 0 -53 -16 -34 -14
-100 4 -90 8 6 29 -26 29 -44 0 -6 -8 -7 -17 -4 -16 6 -16 5 -4 -10 33 -41 42
18 10 63 -17 22 -20 36 -15 64 4 22 13 36 21 36 8 0 15 -3 15 -7 1 -12 71 -85
76 -80 3 3 -15 28 -40 56 -41 46 -46 57 -46 99 0 27 -5 53 -11 59 -6 6 -15 26
-19 45 l-8 33 -1 -31z"/>
<path d="M1165 975 c4 -24 19 -52 36 -70 l30 -30 -32 65 c-40 82 -42 84 -34
35z"/>
<path d="M425 971 c2 -5 18 -14 35 -21 16 -7 30 -18 30 -26 0 -16 39 -44 60
-44 9 1 4 7 -12 15 -15 8 -29 23 -33 34 -3 10 -23 25 -45 34 -22 8 -38 12 -35
8z"/>
<path d="M881 953 c-6 -12 -5 -26 5 -45 8 -16 12 -34 8 -41 -5 -9 -4 -9 5 -1
10 9 10 17 1 34 -7 12 -10 33 -7 46 5 28 2 30 -12 7z"/>
<path d="M1250 952 c0 -9 70 -62 83 -62 4 0 7 5 7 10 0 6 -6 10 -14 10 -8 0
-28 12 -45 26 -17 14 -31 21 -31 16z"/>
<path d="M1030 925 c-6 -41 -3 -88 6 -96 9 -7 10 4 7 38 -5 51 -10 75 -13 58z"/>
<path d="M232 891 c12 -15 29 -37 36 -47 12 -18 13 -18 7 0 -6 22 -47 75 -58
75 -5 1 2 -12 15 -28z"/>
<path d="M1403 550 c0 -47 2 -66 4 -42 2 23 2 61 0 85 -2 23 -4 4 -4 -43z"/>
<path d="M1050 611 c0 -5 -3 -16 -6 -25 -5 -12 0 -16 19 -16 23 0 43 30 29 44
-9 10 -42 7 -42 -3z"/>
<path d="M1040 496 c0 -27 12 -46 30 -46 17 0 34 36 24 52 -9 14 -54 9 -54 -6z"/>
<path d="M1140 486 c0 -14 5 -28 10 -31 6 -3 10 1 10 9 0 9 4 16 10 16 5 0 7
-7 4 -15 -4 -8 -1 -15 5 -15 6 0 11 14 11 30 0 25 -4 30 -25 30 -20 0 -25 -5
-25 -24z"/>
<path d="M690 424 c0 -47 -4 -73 -10 -69 -15 9 -12 -11 4 -24 11 -9 14 4 15
79 1 49 -1 90 -4 90 -3 0 -5 -34 -5 -76z"/>
<path d="M1400 420 l0 -40 -47 0 c-27 0 -91 -2 -143 -4 -52 -2 -158 -5 -235
-6 -98 -2 -126 -5 -95 -10 25 -4 39 -8 33 -8 -8 -1 -13 -16 -13 -37 0 -31 3
-35 25 -35 15 0 25 6 25 15 0 9 -6 12 -15 9 -10 -4 -15 0 -15 11 0 12 5 15 16
11 9 -3 18 -6 20 -6 2 0 4 -9 4 -20 0 -11 5 -20 10 -20 6 0 10 18 10 40 l0 40
150 0 150 0 0 -51 0 -51 -89 4 c-49 1 -93 0 -97 -4 -10 -11 -58 -10 -69 1 -12
11 -65 3 -65 -10 0 -12 301 -8 321 4 10 6 14 18 11 30 -3 14 -1 18 6 13 7 -4
12 -2 12 3 0 6 -4 11 -10 11 -5 0 -10 11 -10 25 0 14 5 25 11 25 6 0 8 -9 3
-22 -6 -20 -5 -21 10 -9 9 7 16 20 16 29 0 13 3 12 20 -3 11 -10 17 -21 14
-26 -5 -8 35 -34 42 -26 2 2 -5 16 -17 31 l-21 27 25 -6 c15 -4 28 -2 33 6 5
9 2 10 -10 6 -13 -5 -17 -3 -13 7 14 36 19 86 8 86 -6 0 -11 -17 -11 -40z"/>
<path d="M860 414 l-34 -24 223 0 224 0 -29 23 c-27 21 -39 22 -189 23 -153 1
-162 1 -195 -22z"/>
<path d="M870 310 c0 -16 4 -30 9 -30 5 0 9 14 9 30 -1 17 -5 30 -10 30 -4 0
-8 -13 -8 -30z"/>
<path d="M1043 313 c3 -39 42 -45 49 -9 6 31 2 36 -28 36 -19 0 -22 -5 -21
-27z"/>
<path d="M1160 310 c0 -16 5 -30 10 -30 6 0 10 9 10 20 0 11 4 20 9 20 5 0 7
-9 4 -20 -4 -14 0 -20 11 -20 11 0 16 9 16 30 0 27 -3 30 -30 30 -27 0 -30 -3
-30 -30z"/>
<path d="M1372 284 c9 -11 18 -41 21 -69 l3 -50 2 55 c2 48 -1 57 -20 69 -22
13 -22 13 -6 -5z"/>
</g>
</svg>
